<mxfile host="app.diagrams.net" modified="2022-12-22T23:23:32.757Z" agent="5.0 (Windows NT 10.0; Win64; x64) AppleWebKit/537.36 (KHTML, like Gecko) Chrome/108.0.0.0 Safari/537.36 Edg/108.0.1462.54" etag="LqpbxkgPRkqhkd1656II" version="20.7.4" type="github">
  <diagram id="77W4f3BD5xBHwO88Eti_" name="Page-1">
    <mxGraphModel dx="3225" dy="1433" grid="1" gridSize="10" guides="1" tooltips="1" connect="1" arrows="1" fold="1" page="1" pageScale="1" pageWidth="850" pageHeight="1100" math="0" shadow="0">
      <root>
        <mxCell id="0" />
        <mxCell id="1" parent="0" />
        <mxCell id="eg7OGDqjugm1QDnJoyaa-2" style="edgeStyle=orthogonalEdgeStyle;rounded=0;orthogonalLoop=1;jettySize=auto;html=1;" parent="1" source="eg7OGDqjugm1QDnJoyaa-1" target="eg7OGDqjugm1QDnJoyaa-3" edge="1">
          <mxGeometry relative="1" as="geometry">
            <mxPoint x="400" y="170" as="targetPoint" />
          </mxGeometry>
        </mxCell>
        <mxCell id="eg7OGDqjugm1QDnJoyaa-1" value="Init" style="ellipse;whiteSpace=wrap;html=1;" parent="1" vertex="1">
          <mxGeometry x="340" y="10" width="120" height="80" as="geometry" />
        </mxCell>
        <mxCell id="eg7OGDqjugm1QDnJoyaa-4" value="mode==0" style="edgeStyle=orthogonalEdgeStyle;rounded=0;orthogonalLoop=1;jettySize=auto;html=1;entryX=0.5;entryY=0;entryDx=0;entryDy=0;" parent="1" source="eg7OGDqjugm1QDnJoyaa-3" target="eg7OGDqjugm1QDnJoyaa-5" edge="1">
          <mxGeometry relative="1" as="geometry">
            <mxPoint x="160" y="240" as="targetPoint" />
          </mxGeometry>
        </mxCell>
        <mxCell id="eg7OGDqjugm1QDnJoyaa-8" value="mode==1" style="edgeStyle=orthogonalEdgeStyle;rounded=0;orthogonalLoop=1;jettySize=auto;html=1;entryX=0.5;entryY=0;entryDx=0;entryDy=0;" parent="1" source="eg7OGDqjugm1QDnJoyaa-3" target="eg7OGDqjugm1QDnJoyaa-6" edge="1">
          <mxGeometry relative="1" as="geometry" />
        </mxCell>
        <mxCell id="eg7OGDqjugm1QDnJoyaa-9" value="mode==2" style="edgeStyle=orthogonalEdgeStyle;rounded=0;orthogonalLoop=1;jettySize=auto;html=1;exitX=1;exitY=0.5;exitDx=0;exitDy=0;entryX=0.5;entryY=0;entryDx=0;entryDy=0;" parent="1" source="eg7OGDqjugm1QDnJoyaa-3" target="eg7OGDqjugm1QDnJoyaa-7" edge="1">
          <mxGeometry relative="1" as="geometry" />
        </mxCell>
        <mxCell id="eg7OGDqjugm1QDnJoyaa-3" value="switch mode" style="ellipse;whiteSpace=wrap;html=1;" parent="1" vertex="1">
          <mxGeometry x="340" y="130" width="120" height="80" as="geometry" />
        </mxCell>
        <mxCell id="eg7OGDqjugm1QDnJoyaa-10" style="edgeStyle=orthogonalEdgeStyle;rounded=0;orthogonalLoop=1;jettySize=auto;html=1;entryX=0;entryY=0.5;entryDx=0;entryDy=0;" parent="1" source="eg7OGDqjugm1QDnJoyaa-5" target="eg7OGDqjugm1QDnJoyaa-13" edge="1">
          <mxGeometry relative="1" as="geometry">
            <mxPoint x="170" y="400" as="targetPoint" />
            <Array as="points">
              <mxPoint x="170" y="400" />
            </Array>
          </mxGeometry>
        </mxCell>
        <mxCell id="eg7OGDqjugm1QDnJoyaa-5" value="Stopwatch" style="ellipse;whiteSpace=wrap;html=1;" parent="1" vertex="1">
          <mxGeometry x="110" y="250" width="120" height="80" as="geometry" />
        </mxCell>
        <mxCell id="eg7OGDqjugm1QDnJoyaa-11" style="edgeStyle=orthogonalEdgeStyle;rounded=0;orthogonalLoop=1;jettySize=auto;html=1;" parent="1" source="eg7OGDqjugm1QDnJoyaa-6" target="eg7OGDqjugm1QDnJoyaa-13" edge="1">
          <mxGeometry relative="1" as="geometry">
            <mxPoint x="400" y="370" as="targetPoint" />
          </mxGeometry>
        </mxCell>
        <mxCell id="eg7OGDqjugm1QDnJoyaa-6" value="Calculator" style="ellipse;whiteSpace=wrap;html=1;" parent="1" vertex="1">
          <mxGeometry x="340" y="250" width="120" height="80" as="geometry" />
        </mxCell>
        <mxCell id="eg7OGDqjugm1QDnJoyaa-16" style="edgeStyle=orthogonalEdgeStyle;rounded=0;orthogonalLoop=1;jettySize=auto;html=1;exitX=0.5;exitY=1;exitDx=0;exitDy=0;entryX=1;entryY=0.5;entryDx=0;entryDy=0;" parent="1" source="eg7OGDqjugm1QDnJoyaa-7" target="eg7OGDqjugm1QDnJoyaa-13" edge="1">
          <mxGeometry relative="1" as="geometry" />
        </mxCell>
        <mxCell id="eg7OGDqjugm1QDnJoyaa-7" value="Timer" style="ellipse;whiteSpace=wrap;html=1;" parent="1" vertex="1">
          <mxGeometry x="570" y="250" width="120" height="80" as="geometry" />
        </mxCell>
        <mxCell id="eg7OGDqjugm1QDnJoyaa-15" style="edgeStyle=orthogonalEdgeStyle;rounded=0;orthogonalLoop=1;jettySize=auto;html=1;entryX=0;entryY=0;entryDx=0;entryDy=0;" parent="1" source="eg7OGDqjugm1QDnJoyaa-13" target="eg7OGDqjugm1QDnJoyaa-3" edge="1">
          <mxGeometry relative="1" as="geometry">
            <mxPoint x="70" y="40" as="targetPoint" />
            <Array as="points">
              <mxPoint x="400" y="460" />
              <mxPoint x="70" y="460" />
              <mxPoint x="70" y="142" />
            </Array>
          </mxGeometry>
        </mxCell>
        <mxCell id="eg7OGDqjugm1QDnJoyaa-13" value="" style="ellipse;whiteSpace=wrap;html=1;" parent="1" vertex="1">
          <mxGeometry x="390" y="390" width="20" height="20" as="geometry" />
        </mxCell>
        <mxCell id="eg7OGDqjugm1QDnJoyaa-19" style="edgeStyle=orthogonalEdgeStyle;rounded=0;orthogonalLoop=1;jettySize=auto;html=1;exitX=0.5;exitY=1;exitDx=0;exitDy=0;entryX=1;entryY=0.5;entryDx=0;entryDy=0;" parent="1" source="eg7OGDqjugm1QDnJoyaa-17" target="eg7OGDqjugm1QDnJoyaa-20" edge="1">
          <mxGeometry relative="1" as="geometry">
            <mxPoint x="170" y="770" as="targetPoint" />
            <Array as="points" />
          </mxGeometry>
        </mxCell>
        <mxCell id="eg7OGDqjugm1QDnJoyaa-17" value="Calculator" style="ellipse;whiteSpace=wrap;html=1;" parent="1" vertex="1">
          <mxGeometry x="425" y="510" width="120" height="80" as="geometry" />
        </mxCell>
        <mxCell id="eg7OGDqjugm1QDnJoyaa-50" style="edgeStyle=orthogonalEdgeStyle;rounded=0;orthogonalLoop=1;jettySize=auto;html=1;exitX=0;exitY=0.5;exitDx=0;exitDy=0;" parent="1" source="eg7OGDqjugm1QDnJoyaa-20" target="eg7OGDqjugm1QDnJoyaa-51" edge="1">
          <mxGeometry relative="1" as="geometry">
            <mxPoint x="170.30769230769226" y="720" as="targetPoint" />
          </mxGeometry>
        </mxCell>
        <mxCell id="eg7OGDqjugm1QDnJoyaa-20" value="initialize variables" style="ellipse;whiteSpace=wrap;html=1;" parent="1" vertex="1">
          <mxGeometry x="210" y="590" width="120" height="80" as="geometry" />
        </mxCell>
        <mxCell id="eg7OGDqjugm1QDnJoyaa-23" value="Counter==0" style="edgeStyle=orthogonalEdgeStyle;rounded=0;orthogonalLoop=1;jettySize=auto;html=1;exitX=1;exitY=0.5;exitDx=0;exitDy=0;" parent="1" target="eg7OGDqjugm1QDnJoyaa-24" edge="1">
          <mxGeometry relative="1" as="geometry">
            <mxPoint x="360" y="890" as="targetPoint" />
            <mxPoint x="139.9999999999984" y="920" as="sourcePoint" />
          </mxGeometry>
        </mxCell>
        <mxCell id="eg7OGDqjugm1QDnJoyaa-25" value="&lt;span style=&quot;color: rgb(0, 0, 0); font-family: Helvetica; font-size: 11px; font-style: normal; font-variant-ligatures: normal; font-variant-caps: normal; font-weight: 400; letter-spacing: normal; orphans: 2; text-align: center; text-indent: 0px; text-transform: none; widows: 2; word-spacing: 0px; -webkit-text-stroke-width: 0px; background-color: rgb(255, 255, 255); text-decoration-thickness: initial; text-decoration-style: initial; text-decoration-color: initial; float: none; display: inline !important;&quot;&gt;Counter==1&lt;/span&gt;" style="edgeStyle=orthogonalEdgeStyle;rounded=0;orthogonalLoop=1;jettySize=auto;html=1;exitX=1;exitY=0.5;exitDx=0;exitDy=0;" parent="1" target="eg7OGDqjugm1QDnJoyaa-26" edge="1">
          <mxGeometry x="0.5238" relative="1" as="geometry">
            <mxPoint x="250" y="1060" as="targetPoint" />
            <mxPoint x="139.9999999999984" y="920" as="sourcePoint" />
            <Array as="points">
              <mxPoint x="240" y="920" />
              <mxPoint x="240" y="1010" />
            </Array>
            <mxPoint as="offset" />
          </mxGeometry>
        </mxCell>
        <mxCell id="eg7OGDqjugm1QDnJoyaa-28" value="&lt;span style=&quot;color: rgb(0, 0, 0); font-family: Helvetica; font-size: 11px; font-style: normal; font-variant-ligatures: normal; font-variant-caps: normal; font-weight: 400; letter-spacing: normal; orphans: 2; text-align: center; text-indent: 0px; text-transform: none; widows: 2; word-spacing: 0px; -webkit-text-stroke-width: 0px; background-color: rgb(255, 255, 255); text-decoration-thickness: initial; text-decoration-style: initial; text-decoration-color: initial; float: none; display: inline !important;&quot;&gt;Counter==2&lt;/span&gt;" style="edgeStyle=orthogonalEdgeStyle;rounded=0;orthogonalLoop=1;jettySize=auto;html=1;exitX=1;exitY=0.5;exitDx=0;exitDy=0;entryX=0;entryY=0.5;entryDx=0;entryDy=0;" parent="1" target="eg7OGDqjugm1QDnJoyaa-27" edge="1">
          <mxGeometry x="0.6774" relative="1" as="geometry">
            <mxPoint x="139.9999999999984" y="920" as="sourcePoint" />
            <Array as="points">
              <mxPoint x="240" y="920" />
              <mxPoint x="240" y="1110" />
            </Array>
            <mxPoint as="offset" />
          </mxGeometry>
        </mxCell>
        <mxCell id="eg7OGDqjugm1QDnJoyaa-30" value="&lt;span style=&quot;color: rgb(0, 0, 0); font-family: Helvetica; font-size: 11px; font-style: normal; font-variant-ligatures: normal; font-variant-caps: normal; font-weight: 400; letter-spacing: normal; orphans: 2; text-align: center; text-indent: 0px; text-transform: none; widows: 2; word-spacing: 0px; -webkit-text-stroke-width: 0px; background-color: rgb(255, 255, 255); text-decoration-thickness: initial; text-decoration-style: initial; text-decoration-color: initial; float: none; display: inline !important;&quot;&gt;Counter==3&lt;/span&gt;" style="edgeStyle=orthogonalEdgeStyle;rounded=0;orthogonalLoop=1;jettySize=auto;html=1;exitX=1;exitY=0.5;exitDx=0;exitDy=0;entryX=0;entryY=0.5;entryDx=0;entryDy=0;" parent="1" target="eg7OGDqjugm1QDnJoyaa-29" edge="1">
          <mxGeometry x="0.7561" relative="1" as="geometry">
            <mxPoint x="139.9999999999984" y="920" as="sourcePoint" />
            <Array as="points">
              <mxPoint x="240" y="920" />
              <mxPoint x="240" y="1210" />
            </Array>
            <mxPoint as="offset" />
          </mxGeometry>
        </mxCell>
        <mxCell id="eg7OGDqjugm1QDnJoyaa-22" value="Switch Phase" style="ellipse;whiteSpace=wrap;html=1;" parent="1" vertex="1">
          <mxGeometry x="20" y="870" width="120" height="80" as="geometry" />
        </mxCell>
        <mxCell id="eg7OGDqjugm1QDnJoyaa-33" value="if digit&amp;nbsp;" style="edgeStyle=orthogonalEdgeStyle;rounded=0;orthogonalLoop=1;jettySize=auto;html=1;entryX=0;entryY=0.5;entryDx=0;entryDy=0;exitX=1;exitY=0.5;exitDx=0;exitDy=0;" parent="1" source="eg7OGDqjugm1QDnJoyaa-24" target="eg7OGDqjugm1QDnJoyaa-39" edge="1">
          <mxGeometry x="0.3975" relative="1" as="geometry">
            <mxPoint x="700" y="820" as="targetPoint" />
            <mxPoint x="480" y="900" as="sourcePoint" />
            <Array as="points">
              <mxPoint x="490" y="910" />
              <mxPoint x="490" y="820" />
            </Array>
            <mxPoint as="offset" />
          </mxGeometry>
        </mxCell>
        <mxCell id="eg7OGDqjugm1QDnJoyaa-35" value="if operator and len greater then 0" style="edgeStyle=orthogonalEdgeStyle;rounded=0;orthogonalLoop=1;jettySize=auto;html=1;exitX=1;exitY=0.5;exitDx=0;exitDy=0;" parent="1" source="eg7OGDqjugm1QDnJoyaa-24" target="eg7OGDqjugm1QDnJoyaa-40" edge="1">
          <mxGeometry relative="1" as="geometry">
            <mxPoint x="700" y="910" as="targetPoint" />
          </mxGeometry>
        </mxCell>
        <mxCell id="eg7OGDqjugm1QDnJoyaa-24" value="Phase 1" style="ellipse;whiteSpace=wrap;html=1;" parent="1" vertex="1">
          <mxGeometry x="340" y="870" width="120" height="80" as="geometry" />
        </mxCell>
        <mxCell id="eg7OGDqjugm1QDnJoyaa-37" value="&#xa;&lt;span style=&quot;color: rgb(0, 0, 0); font-family: Helvetica; font-size: 11px; font-style: normal; font-variant-ligatures: normal; font-variant-caps: normal; font-weight: 400; letter-spacing: normal; orphans: 2; text-align: center; text-indent: 0px; text-transform: none; widows: 2; word-spacing: 0px; -webkit-text-stroke-width: 0px; background-color: rgb(255, 255, 255); text-decoration-thickness: initial; text-decoration-style: initial; text-decoration-color: initial; float: none; display: inline !important;&quot;&gt;if digit&amp;nbsp;&lt;/span&gt;&#xa;&#xa;" style="edgeStyle=orthogonalEdgeStyle;rounded=0;orthogonalLoop=1;jettySize=auto;html=1;exitX=1;exitY=0.5;exitDx=0;exitDy=0;entryX=0;entryY=0.5;entryDx=0;entryDy=0;" parent="1" source="eg7OGDqjugm1QDnJoyaa-26" target="eg7OGDqjugm1QDnJoyaa-41" edge="1">
          <mxGeometry x="0.037" y="-10" relative="1" as="geometry">
            <mxPoint x="700" y="1000" as="targetPoint" />
            <Array as="points">
              <mxPoint x="460" y="1000" />
            </Array>
            <mxPoint as="offset" />
          </mxGeometry>
        </mxCell>
        <mxCell id="eg7OGDqjugm1QDnJoyaa-42" value="&lt;span style=&quot;color: rgb(0, 0, 0); font-family: Helvetica; font-size: 11px; font-style: normal; font-variant-ligatures: normal; font-variant-caps: normal; font-weight: 400; letter-spacing: normal; orphans: 2; text-align: center; text-indent: 0px; text-transform: none; widows: 2; word-spacing: 0px; -webkit-text-stroke-width: 0px; background-color: rgb(255, 255, 255); text-decoration-thickness: initial; text-decoration-style: initial; text-decoration-color: initial; float: none; display: inline !important;&quot;&gt;if &#39;=&#39; and len greater then 0&lt;/span&gt;" style="edgeStyle=orthogonalEdgeStyle;rounded=0;orthogonalLoop=1;jettySize=auto;html=1;exitX=1;exitY=0.5;exitDx=0;exitDy=0;" parent="1" source="eg7OGDqjugm1QDnJoyaa-26" target="eg7OGDqjugm1QDnJoyaa-43" edge="1">
          <mxGeometry x="0.3333" relative="1" as="geometry">
            <mxPoint x="490" y="1060" as="targetPoint" />
            <Array as="points">
              <mxPoint x="520" y="1010" />
              <mxPoint x="520" y="1060" />
            </Array>
            <mxPoint as="offset" />
          </mxGeometry>
        </mxCell>
        <mxCell id="eg7OGDqjugm1QDnJoyaa-26" value="Phase 2" style="ellipse;whiteSpace=wrap;html=1;" parent="1" vertex="1">
          <mxGeometry x="340" y="970" width="120" height="80" as="geometry" />
        </mxCell>
        <mxCell id="eg7OGDqjugm1QDnJoyaa-44" style="edgeStyle=orthogonalEdgeStyle;rounded=0;orthogonalLoop=1;jettySize=auto;html=1;exitX=1;exitY=0.5;exitDx=0;exitDy=0;" parent="1" source="eg7OGDqjugm1QDnJoyaa-27" target="eg7OGDqjugm1QDnJoyaa-45" edge="1">
          <mxGeometry relative="1" as="geometry">
            <mxPoint x="670" y="1130" as="targetPoint" />
            <Array as="points">
              <mxPoint x="460" y="1120" />
              <mxPoint x="585" y="1120" />
              <mxPoint x="585" y="1141" />
            </Array>
          </mxGeometry>
        </mxCell>
        <mxCell id="eg7OGDqjugm1QDnJoyaa-27" value="Phase 3" style="ellipse;whiteSpace=wrap;html=1;" parent="1" vertex="1">
          <mxGeometry x="340" y="1070" width="120" height="80" as="geometry" />
        </mxCell>
        <mxCell id="eg7OGDqjugm1QDnJoyaa-46" value="key == #" style="edgeStyle=orthogonalEdgeStyle;rounded=0;orthogonalLoop=1;jettySize=auto;html=1;exitX=1;exitY=0.5;exitDx=0;exitDy=0;" parent="1" source="eg7OGDqjugm1QDnJoyaa-29" target="eg7OGDqjugm1QDnJoyaa-47" edge="1">
          <mxGeometry relative="1" as="geometry">
            <mxPoint x="700" y="1210" as="targetPoint" />
          </mxGeometry>
        </mxCell>
        <mxCell id="eg7OGDqjugm1QDnJoyaa-29" value="Phase 4" style="ellipse;whiteSpace=wrap;html=1;" parent="1" vertex="1">
          <mxGeometry x="340" y="1170" width="120" height="80" as="geometry" />
        </mxCell>
        <mxCell id="eg7OGDqjugm1QDnJoyaa-32" style="edgeStyle=orthogonalEdgeStyle;rounded=0;orthogonalLoop=1;jettySize=auto;html=1;exitX=0.5;exitY=1;exitDx=0;exitDy=0;entryX=0.5;entryY=0;entryDx=0;entryDy=0;" parent="1" source="eg7OGDqjugm1QDnJoyaa-31" edge="1">
          <mxGeometry relative="1" as="geometry">
            <mxPoint x="80" y="880" as="targetPoint" />
          </mxGeometry>
        </mxCell>
        <mxCell id="eg7OGDqjugm1QDnJoyaa-31" value="read keypad" style="ellipse;whiteSpace=wrap;html=1;" parent="1" vertex="1">
          <mxGeometry x="35" y="780" width="90" height="60" as="geometry" />
        </mxCell>
        <mxCell id="eg7OGDqjugm1QDnJoyaa-49" style="edgeStyle=orthogonalEdgeStyle;rounded=0;orthogonalLoop=1;jettySize=auto;html=1;exitX=1;exitY=0.5;exitDx=0;exitDy=0;entryX=1;entryY=0.5;entryDx=0;entryDy=0;" parent="1" source="eg7OGDqjugm1QDnJoyaa-39" target="eg7OGDqjugm1QDnJoyaa-51" edge="1">
          <mxGeometry relative="1" as="geometry">
            <mxPoint x="230" y="750" as="targetPoint" />
          </mxGeometry>
        </mxCell>
        <mxCell id="eg7OGDqjugm1QDnJoyaa-39" value="&#xa;&lt;span style=&quot;color: rgb(0, 0, 0); font-family: Helvetica; font-size: 12px; font-style: normal; font-variant-ligatures: normal; font-variant-caps: normal; font-weight: 400; letter-spacing: normal; orphans: 2; text-align: center; text-indent: 0px; text-transform: none; widows: 2; word-spacing: 0px; -webkit-text-stroke-width: 0px; background-color: rgb(251, 251, 251); text-decoration-thickness: initial; text-decoration-style: initial; text-decoration-color: initial; float: none; display: inline !important;&quot;&gt;save it in the variable 1 array and increment len&lt;/span&gt;&#xa;&#xa;" style="rounded=0;whiteSpace=wrap;html=1;" parent="1" vertex="1">
          <mxGeometry x="710" y="790" width="120" height="60" as="geometry" />
        </mxCell>
        <mxCell id="eg7OGDqjugm1QDnJoyaa-53" style="edgeStyle=orthogonalEdgeStyle;rounded=0;orthogonalLoop=1;jettySize=auto;html=1;exitX=1;exitY=0.5;exitDx=0;exitDy=0;" parent="1" source="eg7OGDqjugm1QDnJoyaa-40" edge="1">
          <mxGeometry relative="1" as="geometry">
            <mxPoint x="849.9999999999998" y="820" as="targetPoint" />
          </mxGeometry>
        </mxCell>
        <mxCell id="eg7OGDqjugm1QDnJoyaa-40" value="save operator&lt;br&gt;increment the counter&lt;br&gt;reset len" style="rounded=0;whiteSpace=wrap;html=1;" parent="1" vertex="1">
          <mxGeometry x="710" y="880" width="120" height="60" as="geometry" />
        </mxCell>
        <mxCell id="eg7OGDqjugm1QDnJoyaa-54" style="edgeStyle=orthogonalEdgeStyle;rounded=0;orthogonalLoop=1;jettySize=auto;html=1;exitX=1;exitY=0.5;exitDx=0;exitDy=0;" parent="1" source="eg7OGDqjugm1QDnJoyaa-41" edge="1">
          <mxGeometry relative="1" as="geometry">
            <mxPoint x="849.9999999999998" y="910" as="targetPoint" />
          </mxGeometry>
        </mxCell>
        <mxCell id="eg7OGDqjugm1QDnJoyaa-41" value="&lt;br style=&quot;border-color: var(--border-color);&quot;&gt;&lt;span style=&quot;border-color: var(--border-color);&quot;&gt;save it in the variable 1 array and increment len&lt;/span&gt;" style="rounded=0;whiteSpace=wrap;html=1;" parent="1" vertex="1">
          <mxGeometry x="710" y="960" width="120" height="60" as="geometry" />
        </mxCell>
        <mxCell id="eg7OGDqjugm1QDnJoyaa-55" style="edgeStyle=orthogonalEdgeStyle;rounded=0;orthogonalLoop=1;jettySize=auto;html=1;exitX=1;exitY=0.5;exitDx=0;exitDy=0;" parent="1" source="eg7OGDqjugm1QDnJoyaa-43" edge="1">
          <mxGeometry relative="1" as="geometry">
            <mxPoint x="850" y="990" as="targetPoint" />
          </mxGeometry>
        </mxCell>
        <mxCell id="eg7OGDqjugm1QDnJoyaa-43" value="save the number&lt;br&gt;increment the counter" style="rounded=0;whiteSpace=wrap;html=1;" parent="1" vertex="1">
          <mxGeometry x="710" y="1030" width="120" height="60" as="geometry" />
        </mxCell>
        <mxCell id="eg7OGDqjugm1QDnJoyaa-56" style="edgeStyle=orthogonalEdgeStyle;rounded=0;orthogonalLoop=1;jettySize=auto;html=1;exitX=1;exitY=0.5;exitDx=0;exitDy=0;" parent="1" source="eg7OGDqjugm1QDnJoyaa-45" edge="1">
          <mxGeometry relative="1" as="geometry">
            <mxPoint x="850" y="1060" as="targetPoint" />
          </mxGeometry>
        </mxCell>
        <mxCell id="eg7OGDqjugm1QDnJoyaa-45" value="calculate number&lt;br&gt;print number&lt;br&gt;increment counter" style="rounded=0;whiteSpace=wrap;html=1;" parent="1" vertex="1">
          <mxGeometry x="710" y="1100" width="120" height="60" as="geometry" />
        </mxCell>
        <mxCell id="eg7OGDqjugm1QDnJoyaa-48" style="edgeStyle=orthogonalEdgeStyle;rounded=0;orthogonalLoop=1;jettySize=auto;html=1;exitX=1;exitY=0.5;exitDx=0;exitDy=0;entryX=1;entryY=0.5;entryDx=0;entryDy=0;" parent="1" source="eg7OGDqjugm1QDnJoyaa-47" target="eg7OGDqjugm1QDnJoyaa-58" edge="1">
          <mxGeometry relative="1" as="geometry">
            <mxPoint x="880" y="650" as="targetPoint" />
            <Array as="points">
              <mxPoint x="870" y="1210" />
              <mxPoint x="870" y="660" />
            </Array>
          </mxGeometry>
        </mxCell>
        <mxCell id="eg7OGDqjugm1QDnJoyaa-47" value="reset the calcultor" style="rounded=0;whiteSpace=wrap;html=1;" parent="1" vertex="1">
          <mxGeometry x="710" y="1180" width="120" height="60" as="geometry" />
        </mxCell>
        <mxCell id="eg7OGDqjugm1QDnJoyaa-52" value="if mode==1" style="edgeStyle=orthogonalEdgeStyle;rounded=0;orthogonalLoop=1;jettySize=auto;html=1;exitX=0.5;exitY=1;exitDx=0;exitDy=0;entryX=0.5;entryY=0;entryDx=0;entryDy=0;" parent="1" source="eg7OGDqjugm1QDnJoyaa-51" target="eg7OGDqjugm1QDnJoyaa-31" edge="1">
          <mxGeometry relative="1" as="geometry" />
        </mxCell>
        <mxCell id="eg7OGDqjugm1QDnJoyaa-57" value="else" style="edgeStyle=orthogonalEdgeStyle;rounded=0;orthogonalLoop=1;jettySize=auto;html=1;exitX=1;exitY=0;exitDx=0;exitDy=0;entryX=0;entryY=1;entryDx=0;entryDy=0;" parent="1" source="eg7OGDqjugm1QDnJoyaa-51" target="eg7OGDqjugm1QDnJoyaa-58" edge="1">
          <mxGeometry relative="1" as="geometry">
            <mxPoint x="650" y="688.6153846153845" as="targetPoint" />
          </mxGeometry>
        </mxCell>
        <mxCell id="eg7OGDqjugm1QDnJoyaa-51" value="check for mode change" style="ellipse;whiteSpace=wrap;html=1;" parent="1" vertex="1">
          <mxGeometry x="35" y="680" width="90" height="60" as="geometry" />
        </mxCell>
        <mxCell id="eg7OGDqjugm1QDnJoyaa-58" value="return" style="ellipse;whiteSpace=wrap;html=1;" parent="1" vertex="1">
          <mxGeometry x="700" y="619.9953846153845" width="120" height="80" as="geometry" />
        </mxCell>
        <mxCell id="bK9KoAZRgSqbkcWry144-1" style="edgeStyle=orthogonalEdgeStyle;rounded=0;orthogonalLoop=1;jettySize=auto;html=1;exitX=0.5;exitY=1;exitDx=0;exitDy=0;entryX=1;entryY=0.5;entryDx=0;entryDy=0;" edge="1" parent="1" source="bK9KoAZRgSqbkcWry144-2" target="bK9KoAZRgSqbkcWry144-4">
          <mxGeometry relative="1" as="geometry">
            <mxPoint x="1040" y="260" as="targetPoint" />
            <Array as="points" />
          </mxGeometry>
        </mxCell>
        <mxCell id="bK9KoAZRgSqbkcWry144-2" value="Timer" style="ellipse;whiteSpace=wrap;html=1;" vertex="1" parent="1">
          <mxGeometry x="1295" width="120" height="80" as="geometry" />
        </mxCell>
        <mxCell id="bK9KoAZRgSqbkcWry144-3" style="edgeStyle=orthogonalEdgeStyle;rounded=0;orthogonalLoop=1;jettySize=auto;html=1;exitX=0;exitY=0.5;exitDx=0;exitDy=0;" edge="1" parent="1" source="bK9KoAZRgSqbkcWry144-4" target="bK9KoAZRgSqbkcWry144-36">
          <mxGeometry relative="1" as="geometry">
            <mxPoint x="1040.3076923076924" y="210" as="targetPoint" />
          </mxGeometry>
        </mxCell>
        <mxCell id="bK9KoAZRgSqbkcWry144-4" value="Display" style="ellipse;whiteSpace=wrap;html=1;" vertex="1" parent="1">
          <mxGeometry x="1080" y="80" width="120" height="80" as="geometry" />
        </mxCell>
        <mxCell id="bK9KoAZRgSqbkcWry144-5" value="Counter==0" style="edgeStyle=orthogonalEdgeStyle;rounded=0;orthogonalLoop=1;jettySize=auto;html=1;exitX=1;exitY=0.5;exitDx=0;exitDy=0;entryX=0;entryY=0.5;entryDx=0;entryDy=0;" edge="1" parent="1" target="bK9KoAZRgSqbkcWry144-12">
          <mxGeometry relative="1" as="geometry">
            <mxPoint x="1230" y="380" as="targetPoint" />
            <mxPoint x="1009.9999999999984" y="410" as="sourcePoint" />
            <Array as="points">
              <mxPoint x="1110" y="410" />
              <mxPoint x="1110" y="350" />
            </Array>
          </mxGeometry>
        </mxCell>
        <mxCell id="bK9KoAZRgSqbkcWry144-38" style="edgeStyle=orthogonalEdgeStyle;rounded=0;orthogonalLoop=1;jettySize=auto;html=1;exitX=1;exitY=0.5;exitDx=0;exitDy=0;entryX=0;entryY=0.5;entryDx=0;entryDy=0;" edge="1" parent="1" source="bK9KoAZRgSqbkcWry144-9" target="bK9KoAZRgSqbkcWry144-15">
          <mxGeometry x="-0.0714" y="10" relative="1" as="geometry">
            <Array as="points">
              <mxPoint x="1010" y="410" />
              <mxPoint x="1110" y="410" />
              <mxPoint x="1110" y="500" />
            </Array>
            <mxPoint y="-1" as="offset" />
          </mxGeometry>
        </mxCell>
        <mxCell id="bK9KoAZRgSqbkcWry144-9" value="Switch Phase" style="ellipse;whiteSpace=wrap;html=1;" vertex="1" parent="1">
          <mxGeometry x="890" y="360" width="120" height="80" as="geometry" />
        </mxCell>
        <mxCell id="bK9KoAZRgSqbkcWry144-39" value="if digit" style="edgeStyle=orthogonalEdgeStyle;rounded=0;orthogonalLoop=1;jettySize=auto;html=1;exitX=1;exitY=0.5;exitDx=0;exitDy=0;entryX=0;entryY=0.5;entryDx=0;entryDy=0;" edge="1" parent="1" source="bK9KoAZRgSqbkcWry144-12" target="bK9KoAZRgSqbkcWry144-40">
          <mxGeometry x="-0.1579" relative="1" as="geometry">
            <mxPoint x="1440" y="240" as="targetPoint" />
            <mxPoint as="offset" />
          </mxGeometry>
        </mxCell>
        <mxCell id="bK9KoAZRgSqbkcWry144-41" value="else" style="edgeStyle=orthogonalEdgeStyle;rounded=0;orthogonalLoop=1;jettySize=auto;html=1;exitX=0.5;exitY=0;exitDx=0;exitDy=0;entryX=1;entryY=0.5;entryDx=0;entryDy=0;" edge="1" parent="1" source="bK9KoAZRgSqbkcWry144-12" target="bK9KoAZRgSqbkcWry144-36">
          <mxGeometry relative="1" as="geometry" />
        </mxCell>
        <mxCell id="bK9KoAZRgSqbkcWry144-12" value="Phase 1" style="ellipse;whiteSpace=wrap;html=1;" vertex="1" parent="1">
          <mxGeometry x="1200" y="310" width="120" height="80" as="geometry" />
        </mxCell>
        <mxCell id="bK9KoAZRgSqbkcWry144-43" value="if char==#" style="edgeStyle=orthogonalEdgeStyle;rounded=0;orthogonalLoop=1;jettySize=auto;html=1;exitX=1;exitY=0.5;exitDx=0;exitDy=0;" edge="1" parent="1" source="bK9KoAZRgSqbkcWry144-15" target="bK9KoAZRgSqbkcWry144-44">
          <mxGeometry relative="1" as="geometry">
            <mxPoint x="1450" y="500" as="targetPoint" />
          </mxGeometry>
        </mxCell>
        <mxCell id="bK9KoAZRgSqbkcWry144-46" style="edgeStyle=orthogonalEdgeStyle;rounded=0;orthogonalLoop=1;jettySize=auto;html=1;exitX=0.5;exitY=1;exitDx=0;exitDy=0;entryX=0;entryY=0.5;entryDx=0;entryDy=0;" edge="1" parent="1" source="bK9KoAZRgSqbkcWry144-15" target="bK9KoAZRgSqbkcWry144-47">
          <mxGeometry relative="1" as="geometry">
            <mxPoint x="1440" y="620" as="targetPoint" />
          </mxGeometry>
        </mxCell>
        <mxCell id="bK9KoAZRgSqbkcWry144-49" value="if char ==*" style="edgeLabel;html=1;align=center;verticalAlign=middle;resizable=0;points=[];" vertex="1" connectable="0" parent="bK9KoAZRgSqbkcWry144-46">
          <mxGeometry x="0.0575" y="-6" relative="1" as="geometry">
            <mxPoint as="offset" />
          </mxGeometry>
        </mxCell>
        <mxCell id="bK9KoAZRgSqbkcWry144-50" value="else" style="edgeStyle=orthogonalEdgeStyle;rounded=0;orthogonalLoop=1;jettySize=auto;html=1;exitX=0.5;exitY=1;exitDx=0;exitDy=0;" edge="1" parent="1" source="bK9KoAZRgSqbkcWry144-15">
          <mxGeometry relative="1" as="geometry">
            <mxPoint x="1600" y="570" as="targetPoint" />
            <Array as="points">
              <mxPoint x="1260" y="660" />
              <mxPoint x="1600" y="660" />
            </Array>
          </mxGeometry>
        </mxCell>
        <mxCell id="bK9KoAZRgSqbkcWry144-15" value="Phase 2" style="ellipse;whiteSpace=wrap;html=1;" vertex="1" parent="1">
          <mxGeometry x="1200" y="460" width="120" height="80" as="geometry" />
        </mxCell>
        <mxCell id="bK9KoAZRgSqbkcWry144-20" style="edgeStyle=orthogonalEdgeStyle;rounded=0;orthogonalLoop=1;jettySize=auto;html=1;exitX=0.5;exitY=1;exitDx=0;exitDy=0;entryX=0.5;entryY=0;entryDx=0;entryDy=0;" edge="1" parent="1" source="bK9KoAZRgSqbkcWry144-21">
          <mxGeometry relative="1" as="geometry">
            <mxPoint x="950" y="370" as="targetPoint" />
          </mxGeometry>
        </mxCell>
        <mxCell id="bK9KoAZRgSqbkcWry144-21" value="read keypad" style="ellipse;whiteSpace=wrap;html=1;" vertex="1" parent="1">
          <mxGeometry x="905" y="270" width="90" height="60" as="geometry" />
        </mxCell>
        <mxCell id="bK9KoAZRgSqbkcWry144-34" value="if mode==1" style="edgeStyle=orthogonalEdgeStyle;rounded=0;orthogonalLoop=1;jettySize=auto;html=1;exitX=0.5;exitY=1;exitDx=0;exitDy=0;entryX=0.5;entryY=0;entryDx=0;entryDy=0;" edge="1" parent="1" source="bK9KoAZRgSqbkcWry144-36" target="bK9KoAZRgSqbkcWry144-21">
          <mxGeometry relative="1" as="geometry" />
        </mxCell>
        <mxCell id="bK9KoAZRgSqbkcWry144-35" value="else" style="edgeStyle=orthogonalEdgeStyle;rounded=0;orthogonalLoop=1;jettySize=auto;html=1;exitX=1;exitY=0;exitDx=0;exitDy=0;" edge="1" parent="1" source="bK9KoAZRgSqbkcWry144-36" target="bK9KoAZRgSqbkcWry144-37">
          <mxGeometry relative="1" as="geometry">
            <mxPoint x="1520" y="178.61538461538453" as="targetPoint" />
          </mxGeometry>
        </mxCell>
        <mxCell id="bK9KoAZRgSqbkcWry144-36" value="check for mode change" style="ellipse;whiteSpace=wrap;html=1;" vertex="1" parent="1">
          <mxGeometry x="905" y="170" width="90" height="60" as="geometry" />
        </mxCell>
        <mxCell id="bK9KoAZRgSqbkcWry144-37" value="return" style="ellipse;whiteSpace=wrap;html=1;" vertex="1" parent="1">
          <mxGeometry x="1620" y="109.99538461538452" width="120" height="80" as="geometry" />
        </mxCell>
        <mxCell id="bK9KoAZRgSqbkcWry144-42" style="edgeStyle=orthogonalEdgeStyle;rounded=0;orthogonalLoop=1;jettySize=auto;html=1;exitX=0.5;exitY=0;exitDx=0;exitDy=0;" edge="1" parent="1" source="bK9KoAZRgSqbkcWry144-40">
          <mxGeometry relative="1" as="geometry">
            <mxPoint x="1260" y="200" as="targetPoint" />
            <Array as="points">
              <mxPoint x="1513" y="200" />
            </Array>
          </mxGeometry>
        </mxCell>
        <mxCell id="bK9KoAZRgSqbkcWry144-40" value="insert the number in minutes and second and multiply depending on the counter to get total time in seconds" style="rounded=0;whiteSpace=wrap;html=1;" vertex="1" parent="1">
          <mxGeometry x="1440" y="310" width="145" height="80" as="geometry" />
        </mxCell>
        <mxCell id="bK9KoAZRgSqbkcWry144-45" style="edgeStyle=orthogonalEdgeStyle;rounded=0;orthogonalLoop=1;jettySize=auto;html=1;exitX=1;exitY=0.5;exitDx=0;exitDy=0;" edge="1" parent="1" source="bK9KoAZRgSqbkcWry144-44">
          <mxGeometry relative="1" as="geometry">
            <mxPoint x="1513" y="200" as="targetPoint" />
            <Array as="points">
              <mxPoint x="1600" y="500" />
              <mxPoint x="1600" y="200" />
            </Array>
          </mxGeometry>
        </mxCell>
        <mxCell id="bK9KoAZRgSqbkcWry144-44" value="reset the timer and all global variables" style="rounded=0;whiteSpace=wrap;html=1;" vertex="1" parent="1">
          <mxGeometry x="1452.5" y="470" width="120" height="60" as="geometry" />
        </mxCell>
        <mxCell id="bK9KoAZRgSqbkcWry144-48" style="edgeStyle=orthogonalEdgeStyle;rounded=0;orthogonalLoop=1;jettySize=auto;html=1;exitX=1;exitY=0.25;exitDx=0;exitDy=0;" edge="1" parent="1" source="bK9KoAZRgSqbkcWry144-47">
          <mxGeometry relative="1" as="geometry">
            <mxPoint x="1600" y="500" as="targetPoint" />
          </mxGeometry>
        </mxCell>
        <mxCell id="bK9KoAZRgSqbkcWry144-47" value="toogle timer" style="rounded=0;whiteSpace=wrap;html=1;" vertex="1" parent="1">
          <mxGeometry x="1452.5" y="550" width="120" height="60" as="geometry" />
        </mxCell>
        <mxCell id="bK9KoAZRgSqbkcWry144-51" style="edgeStyle=orthogonalEdgeStyle;rounded=0;orthogonalLoop=1;jettySize=auto;html=1;exitX=0.5;exitY=1;exitDx=0;exitDy=0;entryX=1;entryY=0.5;entryDx=0;entryDy=0;" edge="1" parent="1" source="bK9KoAZRgSqbkcWry144-52" target="bK9KoAZRgSqbkcWry144-54">
          <mxGeometry relative="1" as="geometry">
            <mxPoint x="1120" y="940" as="targetPoint" />
            <Array as="points" />
          </mxGeometry>
        </mxCell>
        <mxCell id="bK9KoAZRgSqbkcWry144-52" value="Stopwatch" style="ellipse;whiteSpace=wrap;html=1;" vertex="1" parent="1">
          <mxGeometry x="1375" y="680" width="120" height="80" as="geometry" />
        </mxCell>
        <mxCell id="bK9KoAZRgSqbkcWry144-53" style="edgeStyle=orthogonalEdgeStyle;rounded=0;orthogonalLoop=1;jettySize=auto;html=1;exitX=0;exitY=0.5;exitDx=0;exitDy=0;" edge="1" parent="1" source="bK9KoAZRgSqbkcWry144-54" target="bK9KoAZRgSqbkcWry144-70">
          <mxGeometry relative="1" as="geometry">
            <mxPoint x="1120.3076923076924" y="890" as="targetPoint" />
          </mxGeometry>
        </mxCell>
        <mxCell id="bK9KoAZRgSqbkcWry144-54" value="Display" style="ellipse;whiteSpace=wrap;html=1;" vertex="1" parent="1">
          <mxGeometry x="1160" y="760" width="120" height="80" as="geometry" />
        </mxCell>
        <mxCell id="bK9KoAZRgSqbkcWry144-66" value="if char ==*" style="edgeStyle=orthogonalEdgeStyle;rounded=0;orthogonalLoop=1;jettySize=auto;html=1;exitX=0.5;exitY=1;exitDx=0;exitDy=0;entryX=0;entryY=0.5;entryDx=0;entryDy=0;" edge="1" parent="1" source="bK9KoAZRgSqbkcWry144-67" target="bK9KoAZRgSqbkcWry144-78">
          <mxGeometry relative="1" as="geometry">
            <mxPoint x="1030" y="1050" as="targetPoint" />
          </mxGeometry>
        </mxCell>
        <mxCell id="bK9KoAZRgSqbkcWry144-80" value="if char==#" style="edgeStyle=orthogonalEdgeStyle;rounded=0;orthogonalLoop=1;jettySize=auto;html=1;exitX=0.5;exitY=1;exitDx=0;exitDy=0;" edge="1" parent="1" source="bK9KoAZRgSqbkcWry144-67" target="bK9KoAZRgSqbkcWry144-81">
          <mxGeometry relative="1" as="geometry">
            <mxPoint x="1030.6666666666665" y="1140" as="targetPoint" />
            <Array as="points">
              <mxPoint x="1030" y="1170" />
            </Array>
          </mxGeometry>
        </mxCell>
        <mxCell id="bK9KoAZRgSqbkcWry144-67" value="read keypad" style="ellipse;whiteSpace=wrap;html=1;" vertex="1" parent="1">
          <mxGeometry x="985" y="950" width="90" height="60" as="geometry" />
        </mxCell>
        <mxCell id="bK9KoAZRgSqbkcWry144-68" value="if mode==1" style="edgeStyle=orthogonalEdgeStyle;rounded=0;orthogonalLoop=1;jettySize=auto;html=1;exitX=0.5;exitY=1;exitDx=0;exitDy=0;entryX=0.5;entryY=0;entryDx=0;entryDy=0;" edge="1" parent="1" source="bK9KoAZRgSqbkcWry144-70" target="bK9KoAZRgSqbkcWry144-67">
          <mxGeometry relative="1" as="geometry" />
        </mxCell>
        <mxCell id="bK9KoAZRgSqbkcWry144-69" value="else" style="edgeStyle=orthogonalEdgeStyle;rounded=0;orthogonalLoop=1;jettySize=auto;html=1;exitX=1;exitY=0;exitDx=0;exitDy=0;" edge="1" parent="1" source="bK9KoAZRgSqbkcWry144-70" target="bK9KoAZRgSqbkcWry144-71">
          <mxGeometry relative="1" as="geometry">
            <mxPoint x="1600" y="858.6153846153845" as="targetPoint" />
          </mxGeometry>
        </mxCell>
        <mxCell id="bK9KoAZRgSqbkcWry144-70" value="check for mode change" style="ellipse;whiteSpace=wrap;html=1;" vertex="1" parent="1">
          <mxGeometry x="985" y="850" width="90" height="60" as="geometry" />
        </mxCell>
        <mxCell id="bK9KoAZRgSqbkcWry144-71" value="return" style="ellipse;whiteSpace=wrap;html=1;" vertex="1" parent="1">
          <mxGeometry x="1375" y="819.9953846153845" width="120" height="80" as="geometry" />
        </mxCell>
        <mxCell id="bK9KoAZRgSqbkcWry144-79" style="edgeStyle=orthogonalEdgeStyle;rounded=0;orthogonalLoop=1;jettySize=auto;html=1;exitX=1;exitY=0.5;exitDx=0;exitDy=0;entryX=1;entryY=0.5;entryDx=0;entryDy=0;" edge="1" parent="1" source="bK9KoAZRgSqbkcWry144-78" target="bK9KoAZRgSqbkcWry144-70">
          <mxGeometry relative="1" as="geometry">
            <mxPoint x="1370" y="990" as="targetPoint" />
          </mxGeometry>
        </mxCell>
        <mxCell id="bK9KoAZRgSqbkcWry144-78" value="toggle stopwatch&lt;br&gt;pause/start" style="rounded=0;whiteSpace=wrap;html=1;" vertex="1" parent="1">
          <mxGeometry x="1160" y="1040" width="120" height="60" as="geometry" />
        </mxCell>
        <mxCell id="bK9KoAZRgSqbkcWry144-82" style="edgeStyle=orthogonalEdgeStyle;rounded=0;orthogonalLoop=1;jettySize=auto;html=1;exitX=1;exitY=0.5;exitDx=0;exitDy=0;" edge="1" parent="1" source="bK9KoAZRgSqbkcWry144-81">
          <mxGeometry relative="1" as="geometry">
            <mxPoint x="1300" y="1070" as="targetPoint" />
          </mxGeometry>
        </mxCell>
        <mxCell id="bK9KoAZRgSqbkcWry144-81" value="reset stopwatch" style="rounded=0;whiteSpace=wrap;html=1;" vertex="1" parent="1">
          <mxGeometry x="1159.9966666666664" y="1130" width="120" height="60" as="geometry" />
        </mxCell>
      </root>
    </mxGraphModel>
  </diagram>
</mxfile>
